<?xml version="1.0"?><svg width="640" height="480" xmlns="http://www.w3.org/2000/svg">
 <g>
  <title>Layer 1</title>
  <g id="layer1">
   <g id="g3535">
    <path fill="#008600" fill-rule="evenodd" stroke-width="0.25000000pt" id="path2742" d="m171.494919,189.564163l16.601913,-10.133408l7.438538,14.649384c1.796753,8.003922 -8.049423,10.941162 -15.955093,10.463867l-8.085358,-14.979843z"/>
    <path fill="#008600" fill-rule="evenodd" stroke-width="0.25000000pt" id="path2743" d="m167.721756,200.028015l-8.732162,15.750854l8.732162,15.97113l0.215607,-6.388443l7.977554,0c2.910721,0.257004 6.683899,-1.688919 8.085358,-4.515976l10.241425,-19.165375c-3.377869,3.41452 -7.721344,4.295685 -12.720947,4.295685l-13.475571,0l-0.323425,-5.947876z"/>
    <path fill="#008600" fill-rule="evenodd" stroke-width="0.25000000pt" id="path2751" d="m148.21199,180.608688l-16.72966,-9.911636l8.925171,-13.755356c5.976959,-5.48999 13.269592,1.879761 16.698471,9.173477l-8.893982,14.493515z"/>
    <path fill="#008600" fill-rule="evenodd" stroke-width="0.25000000pt" id="path2752" d="m158.997528,178.900208l17.716751,0.15509l9.428299,-15.552505l-5.571365,2.908279l-3.872192,-7.126236c-1.192902,-2.724854 -4.689484,-5.150848 -7.78891,-5.030548l-21.371185,0.154053c4.561447,1.360062 7.423721,4.812317 9.850464,9.278397l6.540848,12.037537l-4.932709,3.175934z"/>
    <path fill="#008600" fill-rule="evenodd" stroke-width="0.25000000pt" id="path2753" d="m118.680244,179.788086l5.183594,4.050018l-4.878677,9.346176c-2.439346,4.309616 1.751259,8.507935 4.421295,9.969254c2.628494,1.438583 6.708199,1.609619 10.519661,1.557709l6.860641,-11.215424l5.183609,2.803864l-8.995071,-16.667358l-18.295052,0.155762z"/>
    <path fill="#008600" fill-rule="evenodd" stroke-width="0.25000000pt" id="path2754" d="m119.442535,201.440079l11.129501,20.561584c2.236053,2.855789 6.454086,3.530777 10.82457,3.426941l11.739334,0l0,-19.471207l-22.259003,-0.155777c-3.455734,0.207687 -7.978676,-0.519226 -11.434402,-4.361542z"/>
   </g>
  </g>
 </g>
</svg>